<svg xmlns="http://www.w3.org/2000/svg" viewBox="0 0 32 32">
  <defs>
    <linearGradient id="flameGrad" x1="0%" y1="100%" x2="0%" y2="0%">
      <stop offset="0%" style="stop-color:#0092E4;stop-opacity:1" />
      <stop offset="50%" style="stop-color:#00B4FF;stop-opacity:1" />
      <stop offset="100%" style="stop-color:#00D4FF;stop-opacity:0.9" />
    </linearGradient>
    <filter id="glow">
      <feGaussianBlur stdDeviation="1" result="coloredBlur"/>
      <feMerge>
        <feMergeNode in="coloredBlur"/>
        <feMergeNode in="SourceGraphic"/>
      </feMerge>
    </filter>
  </defs>
  <path fill="url(#flameGrad)" filter="url(#glow)" d="M16 2c0 0-5 6-5 12 0 3.5 2 6 2 6s-2-1-3.5-3c0 0-0.5 3 1 6 1.5 3 4.5 5 7.5 5s6-2 7.5-5c1.5-3 1-6 1-6-1.5 2-3.5 3-3.5 3s2-2.5 2-6c0-6-5-12-5-12s-2 4-2 8c0 0-1-4-2-8z"/>
</svg>
